<svg
        width="100%"
        version="1.2" xmlns="http://www.w3.org/2000/svg"
        viewBox="65 200.00551454234073 86.36197196422484 69.98297489895538"
>
    <g>
        <path
                d="M87.46305,200.00551h-3.97861l-18.48444,18.48444v3.97861l0.37225,0.37225l22.46305,-22.46305zM132.87753,200.00551h-3.97861l-0.37225,0.37225l22.46305,22.46305l0.37225,-0.37225v-3.97861zM67.47845,224.94625l22.46303,-22.46305l2.36156,2.36156l-22.463,22.46305zM124.05997,204.84506l2.36156,-2.36156l22.46305,22.46305l-2.36156,2.36156zM84.357,235.12506l15.76255,-15.76255h3.59445v-3.10605l-9.30625,-9.30625l-22.46305,22.46305l9.30625,9.30625h3.10605zM112.64799,219.36251v-3.10605l9.30625,-9.30625l22.46305,22.46305l-9.30625,9.30625h-3.10605v-3.59445l-15.76255,-15.76255zM82.86799,222.34051c0,-2.46281 2.00419,-4.467 4.467,-4.467c2.46281,0 4.467,2.00419 4.467,4.467c0,2.46281 -2.00419,4.467 -4.467,4.467c-2.46281,0 -4.467,-2.00419 -4.467,-4.467zM133.49398,222.34051c0,-2.46281 -2.00419,-4.467 -4.467,-4.467c-2.46281,0 -4.467,2.00419 -4.467,4.467c0,2.46281 2.00419,4.467 4.467,4.467c2.46281,0 4.467,-2.00419 4.467,-4.467zM87.33499,223.82951c0.09778,0 0.19461,-0.00953 0.2905,-0.02859c0.09589,-0.01906 0.189,-0.0473 0.27934,-0.08473c0.09033,-0.03742 0.17615,-0.08328 0.25745,-0.13758c0.0813,-0.0543 0.15649,-0.11604 0.22558,-0.18523c0.06919,-0.06909 0.13093,-0.14428 0.18523,-0.22558c0.0543,-0.0813 0.10016,-0.16711 0.13758,-0.25745c0.03742,-0.09033 0.06567,-0.18345 0.08473,-0.27934c0.01906,-0.09589 0.02859,-0.19273 0.02859,-0.2905c0,-0.09778 -0.00953,-0.19461 -0.02859,-0.2905c-0.01906,-0.09589 -0.0473,-0.189 -0.08473,-0.27934c-0.03742,-0.09033 -0.08328,-0.17615 -0.13758,-0.25745c-0.0543,-0.0813 -0.11604,-0.15649 -0.18523,-0.22558c-0.06909,-0.06919 -0.14428,-0.13093 -0.22558,-0.18523c-0.0813,-0.0543 -0.16711,-0.10016 -0.25745,-0.13758c-0.09033,-0.03742 -0.18345,-0.06567 -0.27934,-0.08473c-0.09589,-0.01906 -0.19273,-0.02859 -0.2905,-0.02859c-0.09778,0 -0.19461,0.00953 -0.2905,0.02859c-0.09589,0.01906 -0.189,0.0473 -0.27934,0.08473c-0.09033,0.03742 -0.17615,0.08328 -0.25745,0.13758c-0.0813,0.0543 -0.15649,0.11604 -0.22558,0.18523c-0.06919,0.06909 -0.13093,0.14428 -0.18523,0.22558c-0.0543,0.0813 -0.10016,0.16711 -0.13758,0.25745c-0.03742,0.09033 -0.06567,0.18345 -0.08473,0.27934c-0.01906,0.09589 -0.02859,0.19273 -0.02859,0.2905c0,0.09778 0.00953,0.19461 0.02859,0.2905c0.01906,0.09589 0.0473,0.189 0.08473,0.27934c0.03742,0.09033 0.08328,0.17615 0.13758,0.25745c0.0543,0.0813 0.11604,0.15649 0.18523,0.22558c0.06909,0.06919 0.14428,0.13093 0.22558,0.18523c0.0813,0.0543 0.16711,0.10016 0.25745,0.13758c0.09033,0.03742 0.18345,0.06567 0.27934,0.08473c0.09589,0.01906 0.19273,0.02859 0.2905,0.02859zM130.51598,222.34051c0,0.09778 -0.00953,0.19461 -0.02859,0.2905c-0.01906,0.09589 -0.0473,0.189 -0.08473,0.27934c-0.03742,0.09033 -0.08328,0.17615 -0.13758,0.25745c-0.0543,0.0813 -0.11604,0.15649 -0.18523,0.22558c-0.06909,0.06919 -0.14428,0.13093 -0.22558,0.18523c-0.0813,0.0543 -0.16711,0.10016 -0.25745,0.13758c-0.09033,0.03742 -0.18345,0.06567 -0.27934,0.08473c-0.09589,0.01906 -0.19273,0.02859 -0.2905,0.02859c-0.09778,0 -0.19461,-0.00953 -0.2905,-0.02859c-0.09589,-0.01906 -0.189,-0.0473 -0.27934,-0.08473c-0.09033,-0.03742 -0.17615,-0.08328 -0.25745,-0.13758c-0.0813,-0.0543 -0.15649,-0.11604 -0.22558,-0.18523c-0.06919,-0.06909 -0.13093,-0.14428 -0.18523,-0.22558c-0.0543,-0.0813 -0.10016,-0.16711 -0.13758,-0.25745c-0.03742,-0.09033 -0.06567,-0.18345 -0.08473,-0.27934c-0.01906,-0.09589 -0.02859,-0.19273 -0.02859,-0.2905c0,-0.09778 0.00953,-0.19461 0.02859,-0.2905c0.01906,-0.09589 0.0473,-0.189 0.08473,-0.27934c0.03742,-0.09033 0.08328,-0.17615 0.13758,-0.25745c0.0543,-0.0813 0.11604,-0.15649 0.18523,-0.22558c0.06909,-0.06919 0.14428,-0.13093 0.22558,-0.18523c0.0813,-0.0543 0.16711,-0.10016 0.25745,-0.13758c0.09033,-0.03742 0.18345,-0.06567 0.27934,-0.08473c0.09589,-0.01906 0.19273,-0.02859 0.2905,-0.02859c0.09778,0 0.19461,0.00953 0.2905,0.02859c0.09589,0.01906 0.189,0.0473 0.27934,0.08473c0.09033,0.03742 0.17615,0.08328 0.25745,0.13758c0.0813,0.0543 0.15649,0.11604 0.22558,0.18523c0.06919,0.06909 0.13093,0.14428 0.18523,0.22558c0.0543,0.0813 0.10016,0.16711 0.13758,0.25745c0.03742,0.09033 0.06567,0.18345 0.08473,0.27934c0.01906,0.09589 0.02859,0.19273 0.02859,0.2905zM107.74471,240.64478l11.01115,11.01115c0.90978,-0.70727 1.92379,-1.28501 3.01671,-1.70639l-24.01458,-24.01458l-2.36156,2.36156l10.85928,10.85928l-2.10544,2.10544l-10.85928,-10.85928l-2.36156,2.36156l24.01458,24.01458c0.42288,-1.09292 0.99912,-2.10544 1.70639,-3.01671l-11.01115,-11.01115zM110.28613,234.2531l8.3177,-8.3177l2.36156,2.36156l-8.3177,8.3177zM114.75313,238.7201l8.3177,-8.3177l2.36156,2.36156l-8.3177,8.3177zM99.24699,245.29194l2.36156,2.36156l-4.00243,4.00243c-0.91127,-0.70727 -1.92379,-1.28352 -3.01671,-1.70639zM99.71156,253.76137c0.70727,0.90978 1.28501,1.92379 1.70639,3.01671l4.65759,-4.65759l-2.36156,-2.36156zM90.31299,252.12049c-4.9271,0 -8.934,4.0069 -8.934,8.934c0,4.9271 4.0069,8.934 8.934,8.934c4.9271,0 8.934,-4.0069 8.934,-8.934c0,-4.9271 -4.0069,-8.934 -8.934,-8.934zM126.04898,252.12049c-4.9271,0 -8.934,4.0069 -8.934,8.934c0,4.9271 4.0069,8.934 8.934,8.934c4.9271,0 8.934,-4.0069 8.934,-8.934c0,-4.9271 -4.0069,-8.934 -8.934,-8.934zM95.67786,263.6111l-2.68765,-1.28203c0.19953,-0.4199 0.30078,-0.84873 0.30078,-1.27458c0,-2.06822 -2.21265,-3.64507 -4.25258,-2.67573l-1.27905,-2.68913c0.82193,-0.39161 1.68108,-0.59113 2.55363,-0.59113c3.28473,0 5.956,2.67127 5.956,5.956c0,0.87255 -0.19953,1.73319 -0.59113,2.55661zM120.68411,263.6111c-0.39161,-0.82342 -0.59113,-1.68406 -0.59113,-2.55661c0,-3.28473 2.67127,-5.956 5.956,-5.956c0.87255,0 1.7317,0.19953 2.55512,0.59113l-1.27905,2.68913c-2.03844,-0.96934 -4.25407,0.60751 -4.25407,2.67573c0,0.42586 0.10125,0.85469 0.30078,1.2731zM90.31299,267.01049c-3.28473,0 -5.956,-2.67127 -5.956,-5.956c0,-0.87255 0.19953,-1.73319 0.59113,-2.55661l2.68765,1.28203c-0.19953,0.4199 -0.30078,0.84873 -0.30078,1.27458c0,2.06822 2.21414,3.64954 4.25258,2.67573l1.27905,2.68913c-0.82193,0.39161 -1.68108,0.59113 -2.55363,0.59113zM126.04898,267.01049c-0.87255,0 -1.7317,-0.19953 -2.55512,-0.59113l1.27905,-2.68913c2.04291,0.9738 4.25407,-0.60751 4.25407,-2.67573c0,-0.42586 -0.10125,-0.85469 -0.30078,-1.2731l2.68765,-1.28203c0.39161,0.82193 0.59113,1.68257 0.59113,2.55512c0,3.28473 -2.67127,5.956 -5.956,5.956z"

        />
    </g>
</svg>